<svg xmlns="http://www.w3.org/2000/svg" data-name="Layer 1" width="300" height="500" viewBox="620 335 380 10" xmlns:xlink="http://www.w3.org/1999/xlink"><path d="M926.8913,318.12715a21.35191,21.35191,0,0,1-2.65257-28.78818c-.42992.40313-.85019.82167-1.2525,1.26662A21.35442,21.35442,0,0,0,954.66587,319.249c.40231-.445.77654-.90512,1.13445-1.37335A21.3519,21.3519,0,0,1,926.8913,318.12715Z" transform="translate(-102.19616 -110.27593)" fill="#2f2e41"/><circle cx="805.35265" cy="179.02742" r="43.97992" fill="#2f2e41"/><path d="M888.33766,351.1603l1.30329-3.38856-23.71989,20.07068-28.6724,16.16081s-14.59686-56.30217-15.63949-57.3448-19.81-40.66268-28.15109-21.89529,16.16081,29.715,16.16081,29.715.782,68.5531,25.80516,68.03178,56.04151-23.19858,56.56283-25.28384S888.33766,351.1603,888.33766,351.1603Z" transform="translate(-102.19616 -110.27593)" fill="#ffb8b8"/><path d="M844.54709,670.20592l-3.1279,45.35452s-8.34106,9.3837-9.38369,19.81-11.99028,29.19372-11.99028,29.19372-3.1279,3.1279,6.2558,2.08527,25.5445-2.60659,27.10845-7.29843.52131-24.50187,9.905-26.58714v18.76739h4.69185l-1.564-20.33134s10.94764-15.11817-2.60659-23.98055l4.17054-34.40688Z" transform="translate(-102.19616 -110.27593)" fill="#2f2e41"/><path d="M973.83355,673.85513l18.76739,34.9282s-2.60658,13.03291,0,17.20344,2.60658,18.24607,2.08526,19.81-1.04263,15.63949,11.99028,16.68213c0,0,3.1279,3.12789,6.77711-1.04264s9.3837-11.99027,7.29843-16.1608-9.38369-38.57742-9.905-39.62-15.63949-42.22662-15.63949-42.22662Z" transform="translate(-102.19616 -110.27593)" fill="#2f2e41"/><circle cx="800.93986" cy="198.89335" r="26.06582" fill="#ffb8b8"/><path d="M900.32794,332.39291s6.77711,8.86238,4.69185,9.905-14.07554,1.564-21.374,10.42633,8.86237,31.279,8.86237,31.279l61.51534-41.184-25.02319-8.34106s-8.14543-12.695-7.62411-22.6Z" transform="translate(-102.19616 -110.27593)" fill="#ffb8b8"/><path d="M966.0138,344.38319l-17.72475-6.2558s-67.77113,31.8003-66.7285,33.36425,0,12.51159,0,12.51159-9.905,6.77711-5.21316,22.41661,15.11817,16.1608,13.55422,18.24607-2.08526,14.59686-2.08526,14.59686S806.491,563.85738,813.26811,656.65169c0,0,71.94166,48.48242,81.84667,17.20344s13.03291-113.12565,13.03291-113.12565,8.86237,128.24383,29.715,127.72251,68.29244-7.29843,64.12191-23.45924-38.05609-82.8893-34.40688-130.32909-25.02318-88.62378-25.02318-88.62378,6.25579-13.03291,3.12789-15.11818l34.40688-52.13163S980.08934,349.075,966.0138,344.38319Z" transform="translate(-102.19616 -110.27593)" fill="#2f2e41"/><path d="M966.26511,347.45624a4.5539,4.5539,0,0,0-6.51989,2.43824c-1.56976,4.31641-3.16073,13.31468-2.5938,32.02349,1.04264,34.40688,1.56395,57.86611,1.56395,57.86611v52.13164s-22.93792,50.04637-10.42632,50.04637,21.374-39.62,21.374-39.62,11.469-59.95139,7.81974-70.37771C977.48276,431.96434,987.77254,359.93592,966.26511,347.45624Z" transform="translate(-102.19616 -110.27593)" fill="#ffb8b8"/><ellipse cx="796.98917" cy="174.8731" rx="22.37129" ry="15.25315" fill="#2f2e41"/><circle cx="832.51547" cy="141.55417" r="21.35441" fill="#2f2e41"/><path d="M949.96478,267.08325a21.3519,21.3519,0,0,1-21.27485-19.57488c-.04853.58735-.07957,1.17967-.07957,1.77953a21.35441,21.35441,0,1,0,42.70883,0c0-.59986-.031-1.19218-.07957-1.77953A21.35189,21.35189,0,0,1,949.96478,267.08325Z" transform="translate(-102.19616 -110.27593)" fill="#2f2e41"/><ellipse cx="927.63789" cy="300.56755" rx="1.82461" ry="4.17053" transform="translate(-146.64304 113.45345) rotate(-13.43351)" fill="#ffb8b8"/><circle cx="826.22371" cy="192.89821" r="1.04263" fill="#f2f2f2"/></svg>