<svg xmlns="http://www.w3.org/2000/svg" data-name="Layer 1"  width="300" height="500" viewBox="500 340 300 10"  xmlns:xlink="http://www.w3.org/1999/xlink"><polygon points="623.966 507.569 612.864 513.624 619.929 536.837 631.03 537.846 637.086 524.726 623.966 507.569" fill="#9f616a"/><polygon points="658.28 553.994 658.28 565.095 675.437 564.086 675.198 554.943 658.28 553.994" fill="#9f616a"/><polygon points="619.929 374.348 625.984 450.042 645.16 561.058 675.437 557.021 665.345 469.217 669.382 388.478 619.929 374.348" fill="#2f2e41"/><path d="M930.24821,463.59817l-72.6656,1.00922-8.074,55.50842,49.453,23.21265,12.11093,44.40673L849.50869,653.336l24.22187,30.27735s34.31431-46.42523,59.54542-72.66559,13.12018-105.97064,13.12018-105.97064Z" transform="translate(-229.5799 -145.76713)" fill="#2f2e41"/><circle cx="657.27084" cy="152.31486" r="22.20337" fill="#9f616a"/><path d="M878.77677,313.22067V335.424l15.13868,24.22186s23.21261-17.15714,18.16639-21.19412-6.05546-35.32355-6.05546-35.32355Z" transform="translate(-229.5799 -145.76713)" fill="#9f616a"/><polygon points="649.197 185.62 634.058 203.786 640.114 329.941 687.548 328.932 695.622 218.925 685.53 190.666 678.607 181.247 666.354 199.749 649.197 185.62" fill="#d0cde1"/><path d="M854.55487,396.988l-11.10169,42.38828,11.10169,42.38824-18.1664,24.22186-16.1479-76.70257s12.111-62.57309,13.12019-69.63785,3.02772-8.074,3.02772-8.074l8.074,1.00925Z" transform="translate(-229.5799 -145.76713)" fill="#2f2e41"/><polygon points="705.714 267.368 712.779 280.489 714.798 302.692 710.761 327.923 724.89 351.136 739.019 287.553 723.881 205.804 717.825 205.804 705.714 267.368" fill="#2f2e41"/><path d="M849.50868,652.32681s-14.12937,4.037-19.17565,5.0462,3.02773,20.18488,3.02773,20.18488,5.0462,26.24035,6.05546,31.28656,8.074,22.20343,17.15717,24.22186,3.02773-35.32355,3.02773-35.32355,4.037-12.1109,4.037-16.14789-6.05547-2.01849-6.05547-2.01849C841.43475,677.55789,849.50868,652.32681,849.50868,652.32681Z" transform="translate(-229.5799 -145.76713)" fill="#2f2e41"/><path d="M882.81379,730.03854c1.00925,6.05548-1.00926,6.05548,15.13867,8.074s12.11094-11.10168,12.11094-11.10168a84.8005,84.8005,0,0,0-4.037-18.16638c-3.02774-8.074-19.17564,2.01849-19.17564,2.01849S881.80455,723.98306,882.81379,730.03854Z" transform="translate(-229.5799 -145.76713)" fill="#2f2e41"/><path d="M906.05267,303.83306l.526,8.97562s6.51241-14.72671,7.52165-29.86536S897.9524,264.77694,887.86,263.7677s-27.24959,6.05545-27.24959,14.12942,18.16639,6.05548,25.23111,4.037,10.09243,15.13867,10.09243,15.13867l4.037,1.00925Z" transform="translate(-229.5799 -145.76713)" fill="#2f2e41"/><polygon points="643.24 192.767 649.197 185.62 666.354 199.749 649.197 211.86 643.24 192.767" fill="#d0cde1"/><polygon points="685.53 190.666 678.465 181.583 666.354 199.749 681.493 210.851 685.53 190.666" fill="#d0cde1"/><path d="M851.52716,411.11737l4.037,38.35128-8.07393,23.21265L842.444,494.88467s.00006,21.19415,20.18489,22.20337,37.342-63.5824,37.342-63.5824,3.02772,14.1294,5.04622,22.20337,36.33279,40.36981,36.33279,40.36981,8.07394-1.00928,15.13866-17.15716-14.12941-31.28656-14.12941-31.28656l-6.0555-21.19416,2.01849-26.24035L952.45164,351.572,910.568,329.87319l4.5416,58.03156-15.13866,45.416-22.708-100.4198-7.56933,5.55084L837.39778,351.572Z" transform="translate(-229.5799 -145.76713)" fill="#2f2e41"/></svg>