<svg xmlns="http://www.w3.org/2000/svg" data-name="Layer 1" width="300" height="500" viewBox="80 80 200 450" xmlns:xlink="http://www.w3.org/1999/xlink"><polygon points="188.696 519.608 200.956 519.607 206.788 472.319 188.694 472.32 188.696 519.608" fill="#ffb7b7"/><path d="M320.0689,699.10505l24.144-.001h.001a15.3873,15.3873,0,0,1,15.38647,15.38624v.5l-39.53076.00146Z" transform="translate(-134.5 -183.5)" fill="#2f2e41"/><polygon points="139.696 520.608 151.956 520.607 157.788 473.319 139.694 473.32 139.696 520.608" fill="#ffb7b7"/><path d="M271.0689,700.10505l24.144-.001h.001a15.3873,15.3873,0,0,1,15.38647,15.38624v.5l-39.53076.00146Z" transform="translate(-134.5 -183.5)" fill="#2f2e41"/><path d="M348.92613,504.295,342.69291,686.5h-20L303.73778,523.21973,295.69291,688.5h-25l-6.90732-195.77009,76.75025-1.05138Z" transform="translate(-134.5 -183.5)" fill="#2f2e41"/><polygon points="152.941 173.116 188.193 172 196.048 317.115 140.325 315.999 152.941 173.116" fill="#cbcbcb"/><path d="M315.30288,508.5005l36.79807-1.05137-10.51373-52.56866,1.05137-30.48983,8.411-49.41455-23.13022-13.66785L322.6625,355s-8.411,8.411-8.411,47.3118S315.30288,508.5005,315.30288,508.5005Z" transform="translate(-134.5 -183.5)" fill="#2f2e41"/><path d="M283.76168,507.44913s31.5412-75.94723,17.87335-109.99269c0,0-4.65253-37.19957-12.31431-42.45644l-11.86728,5.25687-25.233,12.61648,9.46236,26.28433-3.15412,22.07884L256.426,497.98677Z" transform="translate(-134.5 -183.5)" fill="#2f2e41"/><path d="M262.02029,509.01583A9.85868,9.85868,0,0,1,258.1632,494.399L246.16035,475.3339l9.80681-10.11985,16.57221,27.16173a9.91213,9.91213,0,0,1-10.51908,16.64Z" transform="translate(-134.5 -183.5)" fill="#ffb7b7"/><path d="M357.88363,527.22918a9.85869,9.85869,0,0,1,.488-15.10925l-6.04378-21.703,12.29307-6.88952,8.10452,30.76872a9.91212,9.91212,0,0,1-14.84177,12.93306Z" transform="translate(-134.5 -183.5)" fill="#ffb7b7"/><path d="M263.78559,370.7706l-11.56511,2.10275-25.233,60.97965,23.13022,59.92828,15.7706-14.71923-14.71923-35.74669s1.05137-4.20549,0-4.73118,1.54481-3.91012,1.05137-4.17238c-1.05137-.5588,2.10275-5.81567,2.10275-5.81567l12.61648-26.28433Z" transform="translate(-134.5 -183.5)" fill="#2f2e41"/><polygon points="204.984 191.476 216.55 191.476 229.166 256.661 228.115 267.175 232.32 293.459 238.103 320.269 219.704 320.795 210.241 271.38 201.83 237.737 204.984 191.476" fill="#2f2e41"/><circle cx="171.158" cy="138.85404" r="24.56103" fill="#ffb7b7"/><path d="M325.16708,302.50943l4.36106-1.58584s-9.11854-9.11854-21.80531-8.3256l3.56823-3.56814s-8.72213-3.17163-16.65129,5.154c-4.16822,4.3766-8.9909,9.521-11.99731,15.31619h-4.67037l1.94922,3.89848L273.099,317.297l7.00247-.70027a19.67194,19.67194,0,0,0,.66233,10.09671l1.5858,4.361s6.34336-12.68663,6.34336-14.27248v3.96461s4.36107-3.5681,4.36107-5.94686l2.37876,2.77513,1.18938-4.36106,14.669,4.36106-2.37871-3.5681,9.11854,1.18938-3.56824-4.36106s10.30793,5.15394,10.70448,9.515c.39641,4.361,5.5503,9.91146,5.5503,9.91146l2.37872-3.9646S336.66438,308.45631,325.16708,302.50943Z" transform="translate(-134.5 -183.5)" fill="#2f2e41"/></svg>