<svg id="visual" viewBox="0 0 900 600" width="900" height="600" xmlns="http://www.w3.org/2000/svg" xmlns:xlink="http://www.w3.org/1999/xlink" version="1.1"><rect width="900" height="600" fill="#635063"></rect><g><g transform="translate(838 96)"><path d="M103.7 -34.3C114.9 0.7 91 46.5 54.7 72.1C18.4 97.7 -30.2 103.1 -61.7 81.2C-93.1 59.2 -107.4 9.8 -94.3 -27.9C-81.1 -65.7 -40.6 -91.8 2.8 -92.7C46.3 -93.7 92.5 -69.4 103.7 -34.3Z" stroke="#ffdabf" fill="none" stroke-width="20"></path></g><g transform="translate(79 582)"><path d="M90.4 -32.1C101 3.3 82.4 45.5 50.2 68.9C17.9 92.3 -27.9 96.8 -56.5 76.4C-85.1 55.9 -96.6 10.4 -84.3 -27.3C-72.1 -64.9 -36 -94.8 1.9 -95.4C39.9 -96 79.8 -67.5 90.4 -32.1Z" stroke="#ffdabf" fill="none" stroke-width="20"></path></g><g transform="translate(680 347)"><path d="M69.4 -21.7C78.2 4.8 65.8 39.1 40.4 58C15.1 76.9 -23 80.5 -48.3 63C-73.6 45.4 -86.1 6.7 -75.9 -21.6C-65.7 -49.9 -32.9 -67.8 -1.3 -67.3C30.2 -66.9 60.5 -48.2 69.4 -21.7Z" stroke="#ffdabf" fill="none" stroke-width="20"></path></g></g></svg>