<svg version="1.1"
      xmlns="http://www.w3.org/2000/svg"
      xmlns:xlink="http://www.w3.org/1999/xlink"  id="snapshot-81800" width="250" height="250" viewBox="0 0 250 250"><desc>This image was made on Patterninja.com</desc><defs>
<!-- image 04315 -->
<g id="transformed-04315" data-image="04315" transform="translate(-16.52649679238086, 169.59187900952395) rotate(35, 31.52649679238086, 39.408120990476064)"><g><svg version="1.1" width="63.05299358476172px" height="78.81624198095213px" viewBox="0 0 63.05299358476172 78.81624198095213"><g id="original-04315"><svg xmlns="http://www.w3.org/2000/svg" viewBox="0 0 56 70" xmlns:xlink="http://www.w3.org/1999/xlink" version="1.1" preserveAspectRatio="xMidYMid meet">
  <path fill-rule="evenodd" d="M28 21L39 5.108H17z" fill="rgba(185, 229, 255, 1)" stroke="none"/>
  <path fill-rule="evenodd" d="M35.464 0L39 5.108H17L20.536 0z" fill="rgba(185, 229, 255, 1)" stroke="none"/>
  <path fill-rule="evenodd" d="M20.667 0l3.666 5.108H17z" fill="rgba(87, 168, 216, 1)" stroke="none"/>
  <path fill-rule="evenodd" d="M24.333 5.108L28 0h-7.333z" fill="rgba(125, 205, 253, 1)" stroke="none"/>
  <path fill-rule="evenodd" d="M31.667 5.108L35.333 0H28z" fill="rgba(125, 205, 253, 1)" stroke="none"/>
  <path fill-rule="evenodd" d="M35.333 0L39 5.108h-7.333z" fill="rgba(87, 168, 216, 1)" stroke="none"/>
  <path fill-rule="evenodd" d="M28 21l3.667-15.892h-7.334z" fill="rgba(87, 168, 216, 1)" stroke="none"/>
  <path fill-rule="evenodd" d="M28 21L39 5.108h-7.333z" fill="rgba(55, 136, 184, 1)" stroke="none"/>
  <path fill-rule="evenodd" d="M21 11h14l-3 5h-8z" fill="rgba(214, 142, 18, 1)" stroke="none"/>
  <path fill-rule="evenodd" d="M28 14c15.464 0 28 12.536 28 28S43.464 70 28 70 0 57.464 0 42s12.536-28 28-28zm0 7c11.598 0 21 9.402 21 21s-9.402 21-21 21S7 53.598 7 42s9.402-21 21-21z" fill="rgba(255, 175, 36, 1)" stroke="none"/>
  <path fill-rule="evenodd" d="M28 66C14.745 66 4 55.255 4 42s10.745-24 24-24 24 10.745 24 24-10.745 24-24 24zm0-45C16.402 21 7 30.402 7 42s9.402 21 21 21 21-9.402 21-21-9.402-21-21-21z" fill="rgba(255, 206, 120, 1)" stroke="none"/>
</svg>
</g></svg></g></g>
<!-- /image 04315 -->

<!-- image 74034 -->
<g id="transformed-74034" data-image="74034" transform="translate(121.99000099980006, -17.40887911217756) rotate(11, 50.00999900019995, 44.40887911217756)"><g><svg version="1.1" width="100.0199980003999px" height="88.81775822435512px" viewBox="0 0 100.0199980003999 88.81775822435512"><g id="original-74034"><svg xmlns="http://www.w3.org/2000/svg" viewBox="0 0 72 64" xmlns:xlink="http://www.w3.org/1999/xlink" version="1.1" preserveAspectRatio="xMidYMid meet">
  <path fill-rule="evenodd" d="M36 64C29.7 64 0 42.055 0 20.112 0 13.812.67-.002 18.9-.002c7.482 0 14.106 5.712 17.1 11.886C38.994 5.71 45.618-.002 53.1-.002 71.33-.002 72 13.811 72 20.112 72 42.057 42.3 64 36 64z" fill="rgba(219, 89, 64, 1)" stroke="none"/>
  <path fill-rule="evenodd" d="M36 11.884C38.994 5.71 45.618-.002 53.1-.002 71.33-.002 72 13.811 72 20.112 72 42.057 42.3 64 36 64V11.884z" fill="rgba(198, 78, 55, 1)" stroke="none"/>
</svg>
</g></svg></g></g>
<!-- /image 74034 -->

<!-- image 72057 -->
<g id="transformed-72057" data-image="72057" transform="translate(41.79634159942982, 62.796341599429844) rotate(37, 49.20365840057018, 49.203658400570156)"><g><svg version="1.1" width="98.40731680114035px" height="98.40731680114031px" viewBox="0 0 98.40731680114035 98.40731680114031"><g id="original-72057"><svg xmlns="http://www.w3.org/2000/svg" viewBox="0 0 161 161" xmlns:xlink="http://www.w3.org/1999/xlink" version="1.1" preserveAspectRatio="xMidYMid meet">
  <circle cx="80.488" cy="80.646" r="80" fill-rule="evenodd" fill="rgba(223, 113, 245, 1)" stroke="none"/>
  <circle cx="80.488" cy="80.646" r="55.885" fill-rule="evenodd" fill="rgba(81, 228, 194, 1)" stroke="none"/>
  <path fill-rule="evenodd" d="M132.22 40.913c0-6.628-5.372-12-12-12H40.756c-6.628 0-12 5.372-12 12v79.466c0 6.627 5.372 12 12 12h67.984l23.482-23.482V40.913z" fill="rgba(255, 255, 255, 1)" stroke="none"/>
  <path fill-rule="evenodd" d="M132.219 108.896h-11.48c-6.63 0-12 5.37-12 12v11.48l23.48-23.48z" fill="rgba(249, 237, 237, 1)" stroke="none"/>
  <path fill-rule="evenodd" d="M132.22 56.524V40.913c0-6.628-5.372-12-12-12H40.756c-6.628 0-12 5.372-12 12v15.611H132.22z" fill="rgba(254, 61, 80, 1)" stroke="none"/>
  <path fill-rule="evenodd" d="M64.276 80.187c-1.008.719-2.077 1.808-3.208 3.271l-3.603-2.815a25.182 25.182 0 0 1 2.112-2.598 11.241 11.241 0 0 1 2.339-1.921 10.821 10.821 0 0 1 2.774-1.192c1.008-.278 2.16-.418 3.458-.418 1.435 0 2.747.207 3.934.622 1.187.413 2.195 1.007 3.023 1.78a8.08 8.08 0 0 1 1.925 2.754c.455 1.062.684 2.243.684 3.54 0 1.16-.152 2.194-.456 3.106a9.754 9.754 0 0 1-1.387 2.65c-.621.856-1.408 1.725-2.36 2.609a76.791 76.791 0 0 1-3.334 2.898l-5.963 4.97h13.79v4.471H57.05v-4.01l9.979-8.474a42.635 42.635 0 0 0 2.526-2.253c.69-.675 1.249-1.316 1.677-1.923.427-.606.739-1.198.931-1.777a5.84 5.84 0 0 0 .29-1.86c0-1.433-.448-2.543-1.346-3.328-.897-.786-2.007-1.178-3.332-1.178-1.325 0-2.493.359-3.5 1.076z" fill="rgba(44, 60, 165, 1)" stroke="none"/>
  <path fill-rule="evenodd" d="M90.197 80.187c-1.008.719-2.077 1.808-3.209 3.271l-3.602-2.815a25.184 25.184 0 0 1 2.112-2.598 11.242 11.242 0 0 1 2.339-1.921 10.821 10.821 0 0 1 2.774-1.192c1.008-.278 2.16-.418 3.458-.418 1.435 0 2.747.207 3.934.622 1.186.413 2.195 1.007 3.023 1.78a8.08 8.08 0 0 1 1.925 2.754c.455 1.062.684 2.243.684 3.54 0 1.16-.153 2.194-.456 3.106a9.755 9.755 0 0 1-1.387 2.65c-.621.856-1.408 1.725-2.36 2.609a76.778 76.778 0 0 1-3.334 2.898l-5.963 4.97h13.79v4.471H82.971v-4.01l9.979-8.474a42.635 42.635 0 0 0 2.526-2.253c.69-.675 1.249-1.316 1.677-1.923.427-.606.739-1.198.931-1.777a5.84 5.84 0 0 0 .29-1.86c0-1.433-.449-2.543-1.346-3.328-.897-.786-2.008-1.178-3.333-1.178-1.325 0-2.492.359-3.499 1.076z" fill="rgba(44, 60, 165, 1)" stroke="none"/>
  <circle cx="45.306" cy="45.646" r="3.667" fill-rule="evenodd" fill="rgba(37, 37, 40, 0.2)" stroke="none"/>
  <circle cx="45.306" cy="43.646" r="3.667" fill-rule="evenodd" fill="rgba(248, 231, 28, 1)" stroke="none"/>
  <circle cx="115.67" cy="45.646" r="3.667" fill-rule="evenodd" fill="rgba(37, 37, 40, 0.2)" stroke="none"/>
  <circle cx="115.67" cy="43.646" r="3.667" fill-rule="evenodd" fill="rgba(248, 231, 28, 1)" stroke="none"/>
  <path fill-rule="evenodd" d="M28.755 56.524h103.464v2.945H28.755z" fill="rgba(254, 61, 80, 0.2)" stroke="none"/>
  <path fill-rule="evenodd" d="M108.739 130.376v-7.997H40.755c-6.628 0-12-5.373-12-12v8c0 6.627 5.372 12 12 12h67.984" fill="rgba(254, 61, 80, 0.1)" stroke="none"/>
</svg>
</g></svg></g></g>
<!-- /image 72057 -->
</defs><rect x="0" y="0" width="250" height="250" fill="rgba(88, 108, 212, 1)"></rect><use xlink:href="#transformed-04315" transform="translate(-250, -250)"></use><use xlink:href="#transformed-04315" transform="translate(0, -250)"></use><use xlink:href="#transformed-04315" transform="translate(250, -250)"></use><use xlink:href="#transformed-04315" transform="translate(-250, 0)"></use><use xlink:href="#transformed-04315" transform="translate(0, 0)"></use><use xlink:href="#transformed-04315" transform="translate(250, 0)"></use><use xlink:href="#transformed-04315" transform="translate(-250, 250)"></use><use xlink:href="#transformed-04315" transform="translate(0, 250)"></use><use xlink:href="#transformed-04315" transform="translate(250, 250)"></use><use xlink:href="#transformed-74034" transform="translate(-250, -250)"></use><use xlink:href="#transformed-74034" transform="translate(0, -250)"></use><use xlink:href="#transformed-74034" transform="translate(250, -250)"></use><use xlink:href="#transformed-74034" transform="translate(-250, 0)"></use><use xlink:href="#transformed-74034" transform="translate(0, 0)"></use><use xlink:href="#transformed-74034" transform="translate(250, 0)"></use><use xlink:href="#transformed-74034" transform="translate(-250, 250)"></use><use xlink:href="#transformed-74034" transform="translate(0, 250)"></use><use xlink:href="#transformed-74034" transform="translate(250, 250)"></use><use xlink:href="#transformed-72057" transform="translate(-250, -250)"></use><use xlink:href="#transformed-72057" transform="translate(0, -250)"></use><use xlink:href="#transformed-72057" transform="translate(250, -250)"></use><use xlink:href="#transformed-72057" transform="translate(-250, 0)"></use><use xlink:href="#transformed-72057" transform="translate(0, 0)"></use><use xlink:href="#transformed-72057" transform="translate(250, 0)"></use><use xlink:href="#transformed-72057" transform="translate(-250, 250)"></use><use xlink:href="#transformed-72057" transform="translate(0, 250)"></use><use xlink:href="#transformed-72057" transform="translate(250, 250)"></use></svg>